<svg width="1000" height="1000" viewBox="0 0 1000 1000" fill="none" xmlns="http://www.w3.org/2000/svg">
<rect width="1000" height="1000" fill="#072320"/>
<path d="M882.304 420.724C868.82 396.875 850.423 376.563 828.996 361.304C807.568 346.045 783.631 335.03 758.754 329.169C752.587 327.451 746.316 326.441 740.044 325.43C733.772 324.318 727.501 323.712 721.229 323.409C714.958 322.904 708.686 322.904 702.519 323.207L693.216 323.51C689.767 323.813 685.9 324.42 682.346 324.925C675.029 326.036 667.607 327.047 661.545 329.472C655.378 331.695 648.584 333.615 643.044 336.344L626.529 344.63C621.512 347.662 616.808 350.997 612 354.129C593.603 367.468 577.611 381.717 563.604 396.976C550.016 412.74 537.264 428.404 526.288 445.381C520.957 453.869 515.627 462.358 510.714 471.048L503.815 484.387L500.575 491.158L500.052 492.37L499.53 491.158L496.185 484.488L489.286 471.149C484.373 462.459 479.043 453.97 473.712 445.482C462.841 428.505 449.984 412.942 436.396 397.077C422.389 381.717 406.397 367.67 388 354.23C383.192 351.098 378.489 347.662 373.471 344.63L356.956 336.344C351.521 333.514 344.727 331.695 338.56 329.472C332.497 327.047 325.076 326.036 317.759 324.925C314.205 324.42 310.338 323.813 306.888 323.51L297.585 323.207C291.418 322.904 285.147 322.904 278.875 323.409C272.604 323.712 266.332 324.217 260.061 325.43C253.789 326.441 247.517 327.451 241.35 329.169C216.473 335.03 192.537 346.045 171.109 361.304C149.681 376.563 131.285 396.875 117.801 420.724C104.526 444.572 97.2091 472.362 97 499.949C97.1045 527.537 104.526 555.327 117.696 579.276C131.18 603.125 149.577 623.437 171.004 638.696C192.432 653.955 216.369 664.97 241.246 670.831C247.413 672.549 253.684 673.559 259.956 674.57C266.228 675.682 272.499 676.288 278.771 676.591C285.042 677.096 291.314 677.096 297.481 676.793L306.784 676.49C310.233 676.187 314.101 675.58 317.654 675.075C324.971 673.964 332.393 672.953 338.455 670.528C344.622 668.305 351.416 666.385 356.956 663.656L373.471 655.37C378.489 652.338 383.192 649.003 388 645.871C406.397 632.532 422.389 618.283 436.396 603.024C449.984 587.26 462.737 571.596 473.712 554.619C479.043 546.131 484.373 537.642 489.286 528.952L496.185 515.613L499.425 508.842L499.948 507.63L500.47 508.842L503.815 515.512L510.714 528.851C515.627 537.541 520.957 546.03 526.288 554.518C537.159 571.495 550.016 587.058 563.604 602.923C577.611 618.283 593.603 632.33 612 645.77C616.808 648.902 621.512 652.338 626.529 655.37L643.044 663.656C648.479 666.486 655.273 668.305 661.44 670.528C667.503 672.953 674.924 673.964 682.241 675.075C685.795 675.58 689.662 676.187 693.112 676.49L702.415 676.793C708.582 677.096 714.853 677.096 721.125 676.591C727.396 676.288 733.668 675.783 739.939 674.57C746.211 673.559 752.483 672.549 758.65 670.831C783.527 664.97 807.463 653.955 828.891 638.696C850.319 623.437 868.716 603.125 882.199 579.276C895.474 555.428 902.791 527.638 903 500.051C902.896 472.463 895.474 444.673 882.304 420.724ZM492.944 503.486L488.136 508.842L478.415 519.352C471.83 526.324 465.036 533.095 458.242 539.765C444.444 553.104 430.02 565.735 414.968 577.559C400.021 589.584 384.028 600.195 367.409 609.39C350.789 618.586 332.497 625.155 314.101 626.569C276.576 628.591 237.692 616.666 208.425 593.828C178.948 571.192 159.611 536.228 160.029 499.949C159.611 463.671 178.948 428.707 208.425 406.071C237.692 383.132 276.576 371.308 314.101 373.329C332.497 374.744 350.789 381.313 367.409 390.509C384.133 399.603 400.125 410.315 415.073 422.239C430.124 434.063 444.654 446.694 458.346 460.033C465.245 466.703 471.935 473.473 478.52 480.446L488.241 490.956L493.049 496.312L495.349 499.04L496.08 499.848L495.349 500.657L493.049 503.385L492.944 503.486ZM791.889 593.929C762.622 616.868 723.738 628.692 686.213 626.671C667.817 625.256 649.524 618.687 632.905 609.491C616.181 600.397 600.188 589.685 585.241 577.761C570.189 565.937 555.66 553.306 541.967 539.967C535.068 533.297 528.379 526.527 521.794 519.554L512.073 509.044L507.265 503.688L504.965 500.96L504.233 500.152L504.965 499.343L507.265 496.615L512.073 491.259L521.794 480.749C528.379 473.777 535.173 467.006 541.967 460.337C555.765 446.997 570.189 434.366 585.241 422.542C600.188 410.517 616.181 399.907 632.8 390.711C649.42 381.515 667.712 374.946 686.109 373.532C723.633 371.51 762.517 383.435 791.784 406.273C821.261 428.909 840.598 463.873 840.18 500.152C840.598 536.43 821.261 571.394 791.784 594.03L791.889 593.929Z" fill="#80FCE0"/>
<path d="M882.304 420.724C868.82 396.875 850.423 376.563 828.996 361.304C807.568 346.045 783.631 335.03 758.754 329.169C752.587 327.451 746.316 326.441 740.044 325.43C733.772 324.318 727.501 323.712 721.229 323.409C714.958 322.904 708.686 322.904 702.519 323.207L693.216 323.51C689.767 323.813 685.9 324.42 682.346 324.925C675.029 326.036 667.607 327.047 661.545 329.472C655.378 331.695 648.584 333.615 643.044 336.344L626.529 344.63C621.512 347.662 616.808 350.997 612 354.129C593.603 367.468 577.611 381.717 563.604 396.976C550.016 412.74 537.264 428.404 526.288 445.381C520.957 453.869 515.627 462.358 510.714 471.048L503.815 484.387L500.575 491.158L500.052 492.37L499.53 491.158L496.185 484.488L489.286 471.149C484.373 462.459 479.043 453.97 473.712 445.482C462.841 428.505 449.984 412.942 436.396 397.077C422.389 381.717 406.397 367.67 388 354.23C383.192 351.098 378.489 347.662 373.471 344.63L356.956 336.344C351.521 333.514 344.727 331.695 338.56 329.472C332.497 327.047 325.076 326.036 317.759 324.925C314.205 324.42 310.338 323.813 306.888 323.51L297.585 323.207C291.418 322.904 285.147 322.904 278.875 323.409C272.604 323.712 266.332 324.217 260.061 325.43C253.789 326.441 247.517 327.451 241.35 329.169C216.473 335.03 192.537 346.045 171.109 361.304C149.681 376.563 131.285 396.875 117.801 420.724C104.526 444.572 97.2091 472.362 97 499.949C97.1045 527.537 104.526 555.327 117.696 579.276C131.18 603.125 149.577 623.437 171.004 638.696C192.432 653.955 216.369 664.97 241.246 670.831C247.413 672.549 253.684 673.559 259.956 674.57C266.228 675.682 272.499 676.288 278.771 676.591C285.042 677.096 291.314 677.096 297.481 676.793L306.784 676.49C310.233 676.187 314.101 675.58 317.654 675.075C324.971 673.964 332.393 672.953 338.455 670.528C344.622 668.305 351.416 666.385 356.956 663.656L373.471 655.37C378.489 652.338 383.192 649.003 388 645.871C406.397 632.532 422.389 618.283 436.396 603.024C449.984 587.26 462.737 571.596 473.712 554.619C479.043 546.131 484.373 537.642 489.286 528.952L496.185 515.613L499.425 508.842L499.948 507.63L500.47 508.842L503.815 515.512L510.714 528.851C515.627 537.541 520.957 546.03 526.288 554.518C537.159 571.495 550.016 587.058 563.604 602.923C577.611 618.283 593.603 632.33 612 645.77C616.808 648.902 621.512 652.338 626.529 655.37L643.044 663.656C648.479 666.486 655.273 668.305 661.44 670.528C667.503 672.953 674.924 673.964 682.241 675.075C685.795 675.58 689.662 676.187 693.112 676.49L702.415 676.793C708.582 677.096 714.853 677.096 721.125 676.591C727.396 676.288 733.668 675.783 739.939 674.57C746.211 673.559 752.483 672.549 758.65 670.831C783.527 664.97 807.463 653.955 828.891 638.696C850.319 623.437 868.716 603.125 882.199 579.276C895.474 555.428 902.791 527.638 903 500.051C902.896 472.463 895.474 444.673 882.304 420.724ZM492.944 503.486L488.136 508.842L478.415 519.352C471.83 526.324 465.036 533.095 458.242 539.765C444.444 553.104 430.02 565.735 414.968 577.559C400.021 589.584 384.028 600.195 367.409 609.39C350.789 618.586 332.497 625.155 314.101 626.569C276.576 628.591 237.692 616.666 208.425 593.828C178.948 571.192 159.611 536.228 160.029 499.949C159.611 463.671 178.948 428.707 208.425 406.071C237.692 383.132 276.576 371.308 314.101 373.329C332.497 374.744 350.789 381.313 367.409 390.509C384.133 399.603 400.125 410.315 415.073 422.239C430.124 434.063 444.654 446.694 458.346 460.033C465.245 466.703 471.935 473.473 478.52 480.446L488.241 490.956L493.049 496.312L495.349 499.04L496.08 499.848L495.349 500.657L493.049 503.385L492.944 503.486ZM791.889 593.929C762.622 616.868 723.738 628.692 686.213 626.671C667.817 625.256 649.524 618.687 632.905 609.491C616.181 600.397 600.188 589.685 585.241 577.761C570.189 565.937 555.66 553.306 541.967 539.967C535.068 533.297 528.379 526.527 521.794 519.554L512.073 509.044L507.265 503.688L504.965 500.96L504.233 500.152L504.965 499.343L507.265 496.615L512.073 491.259L521.794 480.749C528.379 473.777 535.173 467.006 541.967 460.337C555.765 446.997 570.189 434.366 585.241 422.542C600.188 410.517 616.181 399.907 632.8 390.711C649.42 381.515 667.712 374.946 686.109 373.532C723.633 371.51 762.517 383.435 791.784 406.273C821.261 428.909 840.598 463.873 840.18 500.152C840.598 536.43 821.261 571.394 791.784 594.03L791.889 593.929Z" fill="#80FCE0"/>
</svg>
