<?xml version="1.0" encoding="utf-8"?>
<!-- Generator: Adobe Illustrator 27.0.0, SVG Export Plug-In . SVG Version: 6.00 Build 0)  -->
<svg version="1.1" id="Capa_1" xmlns="http://www.w3.org/2000/svg" xmlns:xlink="http://www.w3.org/1999/xlink" x="0px" y="0px"
	 viewBox="0 0 350 350" style="enable-background:new 0 0 350 350;" xml:space="preserve">
<style type="text/css">
	.st0{fill:#82EBE7;}
	.st1{fill:#ADFFFB;}
</style>
<g transform="matrix( 1, 0, 0, 1, -250.9,19.55) ">
	<g>
		<g id="Layer0_0_FILL">
			<path class="st0" d="M580.8,152c0-18.7-2.9-36.2-8.7-52.5l-155.4,207c2.6,0.1,5.2,0.2,7.8,0.3c0.5,0,1,0,1.5,0
				c42.8,0,79.3-15.1,109.5-45.4C565.6,231.3,580.8,194.8,580.8,152 M562.7,78.5c-4.3-8-9.5-15.6-15.5-23l-256.2,173
				c6.8,11.7,15.3,22.7,25.5,32.9c10.1,10.1,20.9,18.6,32.5,25.3L562.7,78.5 M425.9-2.8c-0.5,0-1,0-1.5,0
				c-9.6,0.1-18.9,0.9-27.8,2.5c-30.4,5.4-57.1,19.7-80.2,42.8c-25.7,25.7-40.4,55.9-44.3,90.6L508.8,20.9
				c-16.4-10.6-34.3-17.7-53.7-21.2C445.8-2,436-2.8,425.9-2.8z"/>
			<path class="st1" d="M572.1,99.5c-2.6-7.2-5.7-14.2-9.4-21L348.9,286.8c20.4,11.9,43,18.5,67.8,19.8L572.1,99.5 M547.2,55.6
				c-3.6-4.5-7.6-8.8-11.8-13.1c-8.4-8.4-17.2-15.6-26.6-21.6L272.1,133.1c-0.7,6.2-1,12.5-1,18.9c0,28.3,6.6,53.8,19.8,76.5
				L547.2,55.6z"/>
		</g>
	</g>
</g>
<g transform="matrix( 1, 0, 0, 1, 57.3,-162.55) ">
	<g>
		<g id="Layer0_1_MEMBER_0_FILL">
			<path d="M185.5,398.1c-1.7,1.7-2.6,3.9-2.6,6.4c0,2.5,0.9,4.6,2.6,6.3s3.8,2.6,6.3,2.6c2.5,0,4.6-0.9,6.3-2.6
				c1.7-1.7,2.6-3.8,2.6-6.3c0-2.5-0.9-4.6-2.6-6.4c-1.7-1.7-3.8-2.6-6.3-2.6C189.3,395.5,187.2,396.4,185.5,398.1 M117.6,187.3
				c0.3,0,0.7,0,1,0c36.2,0,67.7,11.1,94.5,33.4c3.9,3.2,7.7,6.7,11.4,10.4c25.9,25.9,40.3,56.5,43.3,91.9
				c-35.9-7.6-65-23-87.1-46.2l-0.1-0.1c0,0-0.1-0.1-0.1-0.1c-7.9-8.3-14.8-17.6-20.9-27.9c-0.1-0.2-0.2-0.4-0.4-0.7
				c-2.2-3.8-4.3-7.7-6.2-11.7c-0.7-1.4-1.8-2.5-3.3-3.2c-1.5-0.7-3-0.9-4.6-0.5c-1.6,0.4-2.9,1.2-3.9,2.5c-1,1.3-1.5,2.7-1.5,4.4
				v5.4h-19.4c-0.1,0-0.2,0-0.2,0h-3.4v14h3.1c11.4,0.8,18.1,8.6,19.9,23.3v28.3h-23.1v14h2.5c11.5,0.8,18.1,8.7,19.9,23.8
				c0.1,0.8,0.3,1.6,0.7,2.2v11.9h-23.1v14h23.1v54.4c0,1.9,0.7,3.6,2,4.9c1.4,1.4,3,2.1,5,2.1c1.9,0,3.6-0.7,4.9-2.1
				c1.4-1.4,2.1-3,2.1-4.9v-54.4h109.9c-6.5,24.9-19.5,47.1-39.1,66.5v0.1c-3.7,3.7-7.4,7.1-11.3,10.3
				c-26.9,22.4-58.4,33.6-94.6,33.6c-0.3,0-0.7,0-1.1,0l0,0c-0.3,0-0.6,0-0.9,0v16c0.3,0,0.6,0,0.9,0h0.1c0.3,0,0.7,0,1.1,0
				c40.1,0,75.1-12.5,104.8-37.3c4.2-3.5,8.3-7.3,12.4-11.3l0,0c24.1-24,39.2-51.8,45.4-83.4c2.1-10.8,3.2-22.1,3.2-33.9
				c0-45.8-16.2-84.9-48.6-117.2c-4-4-8.2-7.8-12.5-11.4c-29.8-24.7-64.7-37.1-104.7-37.1c-0.4,0-0.7,0-1.1,0h-0.1
				c-0.3,0-0.6,0-0.9,0v16C116.9,187.3,117.2,187.3,117.6,187.3L117.6,187.3 M153.6,362.4v-97c4.6,6.7,9.5,13,14.9,18.9v78.1H153.6
				 M210.9,317.3c5,2.7,10.3,5.3,15.7,7.6v37.5h-15.7V317.3 M182.5,297.8c4.6,3.9,9.4,7.6,14.4,11v53.6h-14.4V297.8 M240.6,362.4
				v-32.2c8.8,2.9,18,5.4,27.8,7.2c0,8.6-0.7,16.9-2,25H240.6z"/>
		</g>
	</g>
</g>
<g transform="matrix( 1, 0, 0, 1, 57.3,-162.55) ">
	<g>
		<g id="Layer0_1_MEMBER_0_FILL_00000050636715081929966560000017608200536673111714_">
			<path d="M47.6,398.1c-1.7-1.7-3.8-2.6-6.3-2.6c-2.5,0-4.6,0.9-6.3,2.6c-1.7,1.7-2.6,3.9-2.6,6.4c0,2.5,0.9,4.6,2.6,6.3
				c1.7,1.7,3.8,2.6,6.3,2.6c2.5,0,4.6-0.9,6.3-2.6s2.6-3.8,2.6-6.3C50.2,402,49.3,399.8,47.6,398.1 M115.6,187.3L115.6,187.3
				c0.4,0,0.7,0,1,0v-16c-0.3,0-0.6,0-0.9,0h-0.1c-0.3,0-0.7,0-1.1,0c-40,0-74.9,12.4-104.7,37.1c-4.3,3.6-8.5,7.4-12.5,11.4
				C-35,252.2-51.2,291.3-51.2,337c0,11.7,1.1,23,3.2,33.9c6.2,31.5,21.3,59.3,45.4,83.4l0,0c4,4,8.1,7.8,12.4,11.3
				c29.8,24.8,64.7,37.3,104.8,37.3c0.4,0,0.7,0,1.1,0h0.1c0.3,0,0.6,0,0.9,0v-16c-0.3,0-0.6,0-0.9,0l0,0c-0.4,0-0.7,0-1.1,0
				c-36.2,0-67.7-11.2-94.6-33.6c-3.9-3.2-7.6-6.6-11.3-10.3v-0.1c-19.5-19.5-32.6-41.6-39.1-66.5H79.5v54.4c0,1.9,0.7,3.6,2.1,4.9
				c1.4,1.4,3,2.1,4.9,2.1c1.9,0,3.6-0.7,5-2.1c1.4-1.4,2.1-3,2-4.9v-54.4h23.1v-14H93.5v-11.9c0.3-0.7,0.6-1.4,0.7-2.2
				c1.8-15.1,8.4-23,19.9-23.8h2.5v-14H93.5v-28.3c1.8-14.7,8.5-22.5,19.9-23.3h3.1v-14h-3.4c-0.1,0-0.2,0-0.2,0H93.5v-5.4
				c0-1.6-0.5-3.1-1.5-4.4c-1-1.3-2.3-2.1-3.9-2.5c-1.6-0.4-3.1-0.2-4.6,0.5c-1.5,0.7-2.6,1.8-3.3,3.2c-2,4-4.1,7.9-6.2,11.7
				c-0.2,0.2-0.3,0.4-0.4,0.7c-6.1,10.3-13,19.6-20.9,27.9c0,0-0.1,0.1-0.1,0.1l-0.1,0.1C30.3,300,1.3,315.3-34.6,323
				c3-35.3,17.4-66,43.3-91.9c3.7-3.7,7.5-7.2,11.4-10.4c26.8-22.3,58.3-33.4,94.5-33.4C114.9,187.3,115.2,187.3,115.6,187.3
				 M79.5,362.4H64.6v-78.1c5.4-5.8,10.3-12.1,14.9-18.9V362.4 M22.2,317.3v45.1H6.5v-37.5C11.9,322.6,17.2,320,22.2,317.3
				 M50.6,297.8v64.6H36.2v-53.6C41.2,305.4,46,301.7,50.6,297.8 M-33.3,362.4c-1.3-8.1-1.9-16.4-2-25c9.7-1.9,19-4.3,27.8-7.2v32.2
				H-33.3z"/>
		</g>
	</g>
</g>
<rect x="172.7" y="82.2" width="2.8" height="14"/>
</svg>
